<mxfile host="app.diagrams.net" modified="2021-11-23T06:38:28.111Z" agent="5.0 (Windows NT 10.0; Win64; x64) AppleWebKit/537.36 (KHTML, like Gecko) Chrome/96.0.4664.45 Safari/537.36 Edg/96.0.1054.29" etag="vtN5cnWhOGz2tzaomgAm" version="15.8.3" type="github">
  <diagram id="-kC8-EX9NPomtugNLF3H" name="Page-1">
    <mxGraphModel dx="1038" dy="579" grid="1" gridSize="10" guides="1" tooltips="1" connect="1" arrows="1" fold="1" page="1" pageScale="1" pageWidth="827" pageHeight="1169" math="0" shadow="0">
      <root>
        <mxCell id="0" />
        <mxCell id="1" parent="0" />
        <mxCell id="LLDy-vm4whv-XX8NyYhA-1" value="&amp;lt;Rhipe CSP Indirect 이용 프로세스&amp;gt;" style="text;html=1;resizable=0;autosize=1;align=center;verticalAlign=middle;points=[];fillColor=none;strokeColor=none;rounded=0;" parent="1" vertex="1">
          <mxGeometry x="10" y="10" width="210" height="20" as="geometry" />
        </mxCell>
        <mxCell id="LLDy-vm4whv-XX8NyYhA-7" value="" style="edgeStyle=orthogonalEdgeStyle;rounded=0;orthogonalLoop=1;jettySize=auto;html=1;" parent="1" source="LLDy-vm4whv-XX8NyYhA-4" target="LLDy-vm4whv-XX8NyYhA-6" edge="1">
          <mxGeometry relative="1" as="geometry" />
        </mxCell>
        <mxCell id="LLDy-vm4whv-XX8NyYhA-4" value="포탈가입" style="strokeWidth=2;html=1;shape=mxgraph.flowchart.terminator;whiteSpace=wrap;" parent="1" vertex="1">
          <mxGeometry x="40" y="90" width="75" height="40" as="geometry" />
        </mxCell>
        <mxCell id="LLDy-vm4whv-XX8NyYhA-5" value="회사정보(회사명, 사업자번호, 회사전화번호, 회사이메일(선택), 팩스(선택),&lt;br style=&quot;font-size: 10px&quot;&gt;&amp;nbsp; &amp;nbsp; &amp;nbsp; &amp;nbsp; &amp;nbsp; &amp;nbsp; &amp;nbsp; &amp;nbsp; 웹사이트, 국가, 도시, 주(선택), Zipcode, 도로명(빌링 주소인지 체크), Industry type&lt;br style=&quot;font-size: 10px&quot;&gt;&lt;div style=&quot;font-size: 10px&quot;&gt;&lt;span style=&quot;font-size: 10px&quot;&gt;계약담당자정보(이름, 성, 전화번호, 이메일, PW, 직함(선택))&lt;/span&gt;&lt;/div&gt;" style="text;html=1;resizable=0;autosize=1;align=left;verticalAlign=middle;points=[];fillColor=none;strokeColor=none;rounded=0;fontSize=10;" parent="1" vertex="1">
          <mxGeometry x="177.5" y="85" width="430" height="40" as="geometry" />
        </mxCell>
        <mxCell id="LLDy-vm4whv-XX8NyYhA-12" value="" style="edgeStyle=orthogonalEdgeStyle;rounded=0;orthogonalLoop=1;jettySize=auto;html=1;" parent="1" source="LLDy-vm4whv-XX8NyYhA-6" target="LLDy-vm4whv-XX8NyYhA-10" edge="1">
          <mxGeometry relative="1" as="geometry" />
        </mxCell>
        <mxCell id="LLDy-vm4whv-XX8NyYhA-6" value="계정승인" style="whiteSpace=wrap;html=1;strokeWidth=2;" parent="1" vertex="1">
          <mxGeometry x="17.5" y="170" width="120" height="30" as="geometry" />
        </mxCell>
        <mxCell id="vkQwAch70h2A3rZclxdM-7" value="" style="edgeStyle=orthogonalEdgeStyle;rounded=0;orthogonalLoop=1;jettySize=auto;html=1;" edge="1" parent="1" source="LLDy-vm4whv-XX8NyYhA-10" target="vkQwAch70h2A3rZclxdM-6">
          <mxGeometry relative="1" as="geometry" />
        </mxCell>
        <mxCell id="LLDy-vm4whv-XX8NyYhA-10" value="로그인" style="whiteSpace=wrap;html=1;strokeWidth=2;" parent="1" vertex="1">
          <mxGeometry x="17.5" y="245" width="120" height="30" as="geometry" />
        </mxCell>
        <mxCell id="LLDy-vm4whv-XX8NyYhA-17" value="&lt;ul&gt;&lt;li&gt;MPN ID를 CSP계정과 연결?&lt;/li&gt;&lt;/ul&gt;" style="text;html=1;resizable=0;autosize=1;align=left;verticalAlign=middle;points=[];fillColor=none;strokeColor=none;rounded=0;" parent="1" vertex="1">
          <mxGeometry x="115" y="165" width="210" height="40" as="geometry" />
        </mxCell>
        <mxCell id="LLDy-vm4whv-XX8NyYhA-18" value="&lt;ul&gt;&lt;li&gt;첫 계정은 관리자로 지정&lt;/li&gt;&lt;/ul&gt;" style="text;html=1;resizable=0;autosize=1;align=left;verticalAlign=middle;points=[];fillColor=none;strokeColor=none;rounded=0;" parent="1" vertex="1">
          <mxGeometry x="115" y="235" width="190" height="40" as="geometry" />
        </mxCell>
        <mxCell id="LLDy-vm4whv-XX8NyYhA-19" value="테넌트 생성" style="whiteSpace=wrap;html=1;strokeWidth=2;" parent="1" vertex="1">
          <mxGeometry x="17.5" y="580" width="120" height="30" as="geometry" />
        </mxCell>
        <mxCell id="LLDy-vm4whv-XX8NyYhA-28" value="" style="edgeStyle=orthogonalEdgeStyle;rounded=0;orthogonalLoop=1;jettySize=auto;html=1;" parent="1" edge="1">
          <mxGeometry relative="1" as="geometry">
            <mxPoint x="77" y="610" as="sourcePoint" />
            <mxPoint x="77" y="650" as="targetPoint" />
          </mxGeometry>
        </mxCell>
        <mxCell id="LLDy-vm4whv-XX8NyYhA-33" value="" style="edgeStyle=orthogonalEdgeStyle;rounded=0;orthogonalLoop=1;jettySize=auto;html=1;" parent="1" source="LLDy-vm4whv-XX8NyYhA-29" target="LLDy-vm4whv-XX8NyYhA-32" edge="1">
          <mxGeometry relative="1" as="geometry" />
        </mxCell>
        <mxCell id="LLDy-vm4whv-XX8NyYhA-29" value="신규고객&lt;br&gt;선택?" style="strokeWidth=2;html=1;shape=mxgraph.flowchart.decision;whiteSpace=wrap;align=center;" parent="1" vertex="1">
          <mxGeometry x="42.5" y="650" width="70" height="70" as="geometry" />
        </mxCell>
        <mxCell id="LLDy-vm4whv-XX8NyYhA-32" value="고객생성" style="whiteSpace=wrap;html=1;strokeWidth=2;" parent="1" vertex="1">
          <mxGeometry x="150" y="670" width="120" height="30" as="geometry" />
        </mxCell>
        <mxCell id="LLDy-vm4whv-XX8NyYhA-51" value="" style="edgeStyle=orthogonalEdgeStyle;rounded=0;orthogonalLoop=1;jettySize=auto;html=1;" parent="1" source="LLDy-vm4whv-XX8NyYhA-34" edge="1">
          <mxGeometry relative="1" as="geometry">
            <mxPoint x="610" y="685" as="targetPoint" />
          </mxGeometry>
        </mxCell>
        <mxCell id="LLDy-vm4whv-XX8NyYhA-34" value="MPA(MS파트너계약)" style="whiteSpace=wrap;html=1;strokeWidth=2;" parent="1" vertex="1">
          <mxGeometry x="460" y="670" width="120" height="30" as="geometry" />
        </mxCell>
        <mxCell id="LLDy-vm4whv-XX8NyYhA-35" value="이름, URL, 이메일, 사업자번호, &lt;br style=&quot;font-size: 10px;&quot;&gt;국가, 도시, zipcode, 주소" style="text;whiteSpace=wrap;html=1;fontSize=10;" parent="1" vertex="1">
          <mxGeometry x="425" y="440" width="410" height="30" as="geometry" />
        </mxCell>
        <mxCell id="LLDy-vm4whv-XX8NyYhA-38" value="Yes" style="text;html=1;resizable=0;autosize=1;align=center;verticalAlign=middle;points=[];fillColor=none;strokeColor=none;rounded=0;" parent="1" vertex="1">
          <mxGeometry x="112.5" y="660" width="30" height="20" as="geometry" />
        </mxCell>
        <mxCell id="LLDy-vm4whv-XX8NyYhA-39" value="No" style="text;html=1;resizable=0;autosize=1;align=center;verticalAlign=middle;points=[];fillColor=none;strokeColor=none;rounded=0;" parent="1" vertex="1">
          <mxGeometry x="50" y="720" width="30" height="20" as="geometry" />
        </mxCell>
        <mxCell id="LLDy-vm4whv-XX8NyYhA-40" value="" style="edgeStyle=orthogonalEdgeStyle;rounded=0;orthogonalLoop=1;jettySize=auto;html=1;" parent="1" edge="1">
          <mxGeometry relative="1" as="geometry">
            <mxPoint x="77" y="720" as="sourcePoint" />
            <mxPoint x="77" y="760" as="targetPoint" />
          </mxGeometry>
        </mxCell>
        <mxCell id="LLDy-vm4whv-XX8NyYhA-49" style="edgeStyle=orthogonalEdgeStyle;rounded=0;orthogonalLoop=1;jettySize=auto;html=1;" parent="1" source="LLDy-vm4whv-XX8NyYhA-41" target="LLDy-vm4whv-XX8NyYhA-44" edge="1">
          <mxGeometry relative="1" as="geometry" />
        </mxCell>
        <mxCell id="LLDy-vm4whv-XX8NyYhA-41" value="고객검색" style="whiteSpace=wrap;html=1;strokeWidth=2;" parent="1" vertex="1">
          <mxGeometry x="17.5" y="760" width="120" height="30" as="geometry" />
        </mxCell>
        <mxCell id="LLDy-vm4whv-XX8NyYhA-43" value="" style="edgeStyle=orthogonalEdgeStyle;rounded=0;orthogonalLoop=1;jettySize=auto;html=1;" parent="1" edge="1">
          <mxGeometry relative="1" as="geometry">
            <mxPoint x="270" y="684.5" as="sourcePoint" />
            <mxPoint x="307.5" y="684.5" as="targetPoint" />
          </mxGeometry>
        </mxCell>
        <mxCell id="LLDy-vm4whv-XX8NyYhA-47" value="" style="edgeStyle=orthogonalEdgeStyle;rounded=0;orthogonalLoop=1;jettySize=auto;html=1;" parent="1" source="LLDy-vm4whv-XX8NyYhA-44" target="LLDy-vm4whv-XX8NyYhA-34" edge="1">
          <mxGeometry relative="1" as="geometry" />
        </mxCell>
        <mxCell id="LLDy-vm4whv-XX8NyYhA-44" value="테넌트정보 입력" style="whiteSpace=wrap;html=1;strokeWidth=2;" parent="1" vertex="1">
          <mxGeometry x="305" y="670" width="120" height="30" as="geometry" />
        </mxCell>
        <mxCell id="LLDy-vm4whv-XX8NyYhA-45" value="" style="shape=datastore;whiteSpace=wrap;html=1;" parent="1" vertex="1">
          <mxGeometry x="620" y="400" width="35" height="30" as="geometry" />
        </mxCell>
        <mxCell id="LLDy-vm4whv-XX8NyYhA-46" value="이름, 이메일, 전화번호(이하 테넌트 정보 자동로드), &lt;br style=&quot;font-size: 10px;&quot;&gt;MS도메인 프리픽스(자동검증), &lt;br style=&quot;font-size: 10px;&quot;&gt;테넌트 MS자격(기업, 교육, 공익용)" style="text;whiteSpace=wrap;html=1;fontSize=10;" parent="1" vertex="1">
          <mxGeometry x="580" y="430" width="410" height="30" as="geometry" />
        </mxCell>
        <mxCell id="x1_s0fbQaFr76W7rGfXg-1" value="*MS파트너 센터 가입 선행" style="text;html=1;resizable=0;autosize=1;align=center;verticalAlign=middle;points=[];fillColor=none;strokeColor=none;rounded=0;fontSize=10;" parent="1" vertex="1">
          <mxGeometry x="30" y="60" width="130" height="20" as="geometry" />
        </mxCell>
        <mxCell id="x1_s0fbQaFr76W7rGfXg-16" value="" style="edgeStyle=orthogonalEdgeStyle;rounded=0;orthogonalLoop=1;jettySize=auto;html=1;fontSize=10;" parent="1" source="x1_s0fbQaFr76W7rGfXg-7" target="x1_s0fbQaFr76W7rGfXg-15" edge="1">
          <mxGeometry relative="1" as="geometry" />
        </mxCell>
        <mxCell id="x1_s0fbQaFr76W7rGfXg-7" value="테넌트 전환" style="whiteSpace=wrap;html=1;strokeWidth=2;" parent="1" vertex="1">
          <mxGeometry x="150" y="480" width="120" height="30" as="geometry" />
        </mxCell>
        <mxCell id="x1_s0fbQaFr76W7rGfXg-11" value="" style="edgeStyle=orthogonalEdgeStyle;rounded=0;orthogonalLoop=1;jettySize=auto;html=1;fontSize=10;" parent="1" source="x1_s0fbQaFr76W7rGfXg-10" target="LLDy-vm4whv-XX8NyYhA-19" edge="1">
          <mxGeometry relative="1" as="geometry" />
        </mxCell>
        <mxCell id="x1_s0fbQaFr76W7rGfXg-12" value="" style="edgeStyle=orthogonalEdgeStyle;rounded=0;orthogonalLoop=1;jettySize=auto;html=1;fontSize=10;" parent="1" source="x1_s0fbQaFr76W7rGfXg-10" target="x1_s0fbQaFr76W7rGfXg-7" edge="1">
          <mxGeometry relative="1" as="geometry" />
        </mxCell>
        <mxCell id="x1_s0fbQaFr76W7rGfXg-10" value="테넌트&lt;br&gt;신규생성?" style="rhombus;whiteSpace=wrap;html=1;fontSize=10;align=center;" parent="1" vertex="1">
          <mxGeometry x="42.5" y="460" width="70" height="70" as="geometry" />
        </mxCell>
        <mxCell id="x1_s0fbQaFr76W7rGfXg-13" value="No" style="text;html=1;resizable=0;autosize=1;align=center;verticalAlign=middle;points=[];fillColor=none;strokeColor=none;rounded=0;" parent="1" vertex="1">
          <mxGeometry x="107.5" y="470" width="30" height="20" as="geometry" />
        </mxCell>
        <mxCell id="x1_s0fbQaFr76W7rGfXg-14" value="Yes" style="text;html=1;resizable=0;autosize=1;align=center;verticalAlign=middle;points=[];fillColor=none;strokeColor=none;rounded=0;" parent="1" vertex="1">
          <mxGeometry x="50" y="530" width="30" height="20" as="geometry" />
        </mxCell>
        <mxCell id="x1_s0fbQaFr76W7rGfXg-34" value="" style="edgeStyle=orthogonalEdgeStyle;rounded=0;orthogonalLoop=1;jettySize=auto;html=1;fontSize=10;" parent="1" source="x1_s0fbQaFr76W7rGfXg-15" target="x1_s0fbQaFr76W7rGfXg-17" edge="1">
          <mxGeometry relative="1" as="geometry" />
        </mxCell>
        <mxCell id="x1_s0fbQaFr76W7rGfXg-15" value="신규고객&lt;br&gt;선택?" style="strokeWidth=2;html=1;shape=mxgraph.flowchart.decision;whiteSpace=wrap;align=center;" parent="1" vertex="1">
          <mxGeometry x="315" y="460" width="70" height="70" as="geometry" />
        </mxCell>
        <mxCell id="x1_s0fbQaFr76W7rGfXg-35" value="" style="edgeStyle=orthogonalEdgeStyle;rounded=0;orthogonalLoop=1;jettySize=auto;html=1;fontSize=10;" parent="1" source="x1_s0fbQaFr76W7rGfXg-17" target="x1_s0fbQaFr76W7rGfXg-19" edge="1">
          <mxGeometry relative="1" as="geometry" />
        </mxCell>
        <mxCell id="x1_s0fbQaFr76W7rGfXg-17" value="고객생성" style="whiteSpace=wrap;html=1;strokeWidth=2;" parent="1" vertex="1">
          <mxGeometry x="425" y="480" width="120" height="30" as="geometry" />
        </mxCell>
        <mxCell id="x1_s0fbQaFr76W7rGfXg-18" value="MPA(MS파트너계약)" style="whiteSpace=wrap;html=1;strokeWidth=2;" parent="1" vertex="1">
          <mxGeometry x="735" y="480" width="120" height="30" as="geometry" />
        </mxCell>
        <mxCell id="x1_s0fbQaFr76W7rGfXg-36" value="" style="edgeStyle=orthogonalEdgeStyle;rounded=0;orthogonalLoop=1;jettySize=auto;html=1;fontSize=10;" parent="1" source="x1_s0fbQaFr76W7rGfXg-19" target="x1_s0fbQaFr76W7rGfXg-18" edge="1">
          <mxGeometry relative="1" as="geometry" />
        </mxCell>
        <mxCell id="x1_s0fbQaFr76W7rGfXg-19" value="테넌트정보 입력" style="whiteSpace=wrap;html=1;strokeWidth=2;" parent="1" vertex="1">
          <mxGeometry x="580" y="480" width="120" height="30" as="geometry" />
        </mxCell>
        <mxCell id="x1_s0fbQaFr76W7rGfXg-21" value="&lt;ul&gt;&lt;li&gt;Monthly, Yearly&lt;/li&gt;&lt;/ul&gt;" style="text;html=1;resizable=0;autosize=1;align=left;verticalAlign=middle;points=[];fillColor=none;strokeColor=none;rounded=0;" parent="1" vertex="1">
          <mxGeometry x="840" y="425" width="140" height="40" as="geometry" />
        </mxCell>
        <mxCell id="x1_s0fbQaFr76W7rGfXg-26" value="No" style="text;html=1;resizable=0;autosize=1;align=center;verticalAlign=middle;points=[];fillColor=none;strokeColor=none;rounded=0;" parent="1" vertex="1">
          <mxGeometry x="315" y="520" width="30" height="20" as="geometry" />
        </mxCell>
        <mxCell id="x1_s0fbQaFr76W7rGfXg-27" value="" style="edgeStyle=orthogonalEdgeStyle;rounded=0;orthogonalLoop=1;jettySize=auto;html=1;" parent="1" edge="1">
          <mxGeometry relative="1" as="geometry">
            <mxPoint x="349.5" y="530" as="sourcePoint" />
            <mxPoint x="349.5" y="570" as="targetPoint" />
          </mxGeometry>
        </mxCell>
        <mxCell id="x1_s0fbQaFr76W7rGfXg-28" style="edgeStyle=orthogonalEdgeStyle;rounded=0;orthogonalLoop=1;jettySize=auto;html=1;" parent="1" source="x1_s0fbQaFr76W7rGfXg-29" edge="1">
          <mxGeometry relative="1" as="geometry">
            <mxPoint x="637.5" y="510" as="targetPoint" />
          </mxGeometry>
        </mxCell>
        <mxCell id="x1_s0fbQaFr76W7rGfXg-29" value="고객검색" style="whiteSpace=wrap;html=1;strokeWidth=2;" parent="1" vertex="1">
          <mxGeometry x="287.5" y="550" width="120" height="30" as="geometry" />
        </mxCell>
        <mxCell id="x1_s0fbQaFr76W7rGfXg-31" value="" style="shape=datastore;whiteSpace=wrap;html=1;" parent="1" vertex="1">
          <mxGeometry x="467.5" y="400" width="35" height="30" as="geometry" />
        </mxCell>
        <mxCell id="x1_s0fbQaFr76W7rGfXg-32" value="" style="shape=datastore;whiteSpace=wrap;html=1;" parent="1" vertex="1">
          <mxGeometry x="135" y="90" width="35" height="30" as="geometry" />
        </mxCell>
        <mxCell id="x1_s0fbQaFr76W7rGfXg-39" value="" style="edgeStyle=orthogonalEdgeStyle;rounded=0;orthogonalLoop=1;jettySize=auto;html=1;entryX=0;entryY=0.486;entryDx=0;entryDy=0;entryPerimeter=0;" parent="1" edge="1" target="vkQwAch70h2A3rZclxdM-17">
          <mxGeometry relative="1" as="geometry">
            <mxPoint x="855" y="494.5" as="sourcePoint" />
            <mxPoint x="885" y="494.5" as="targetPoint" />
          </mxGeometry>
        </mxCell>
        <mxCell id="x1_s0fbQaFr76W7rGfXg-40" value="Yes" style="text;html=1;resizable=0;autosize=1;align=center;verticalAlign=middle;points=[];fillColor=none;strokeColor=none;rounded=0;" parent="1" vertex="1">
          <mxGeometry x="377.5" y="470" width="30" height="20" as="geometry" />
        </mxCell>
        <mxCell id="x1_s0fbQaFr76W7rGfXg-41" value="테넌트전환 동의" style="whiteSpace=wrap;html=1;strokeWidth=2;" parent="1" vertex="1">
          <mxGeometry x="1140" y="480" width="120" height="30" as="geometry" />
        </mxCell>
        <mxCell id="x1_s0fbQaFr76W7rGfXg-42" value="&lt;ul&gt;&lt;li&gt;End User의 MS Admin&lt;/li&gt;&lt;/ul&gt;" style="text;html=1;resizable=0;autosize=1;align=left;verticalAlign=middle;points=[];fillColor=none;strokeColor=none;rounded=0;" parent="1" vertex="1">
          <mxGeometry x="1110" y="440" width="180" height="40" as="geometry" />
        </mxCell>
        <mxCell id="x1_s0fbQaFr76W7rGfXg-44" value="" style="edgeStyle=orthogonalEdgeStyle;rounded=0;orthogonalLoop=1;jettySize=auto;html=1;" parent="1" edge="1">
          <mxGeometry relative="1" as="geometry">
            <mxPoint x="960" y="494.5" as="sourcePoint" />
            <mxPoint x="990" y="494.5" as="targetPoint" />
          </mxGeometry>
        </mxCell>
        <mxCell id="x1_s0fbQaFr76W7rGfXg-46" value="" style="edgeStyle=orthogonalEdgeStyle;rounded=0;orthogonalLoop=1;jettySize=auto;html=1;fontSize=10;" parent="1" source="x1_s0fbQaFr76W7rGfXg-45" target="x1_s0fbQaFr76W7rGfXg-41" edge="1">
          <mxGeometry relative="1" as="geometry" />
        </mxCell>
        <mxCell id="x1_s0fbQaFr76W7rGfXg-45" value="MS파트너 링크 전송" style="whiteSpace=wrap;html=1;strokeWidth=2;" parent="1" vertex="1">
          <mxGeometry x="990" y="480" width="120" height="30" as="geometry" />
        </mxCell>
        <mxCell id="x1_s0fbQaFr76W7rGfXg-47" value="&lt;ul&gt;&lt;li&gt;Reseller -&amp;gt; End User&lt;/li&gt;&lt;/ul&gt;" style="text;html=1;resizable=0;autosize=1;align=left;verticalAlign=middle;points=[];fillColor=none;strokeColor=none;rounded=0;" parent="1" vertex="1">
          <mxGeometry x="961" y="440" width="170" height="40" as="geometry" />
        </mxCell>
        <mxCell id="Jh1CxPEHTyQ2Su4Y3jyr-1" value="" style="edgeStyle=orthogonalEdgeStyle;rounded=0;orthogonalLoop=1;jettySize=auto;html=1;fontSize=10;" parent="1" edge="1">
          <mxGeometry relative="1" as="geometry">
            <mxPoint x="1260" y="494.5" as="sourcePoint" />
            <mxPoint x="1290" y="494.5" as="targetPoint" />
          </mxGeometry>
        </mxCell>
        <mxCell id="sWF5zsyBriAMHVySnrM8-1" value="인보이스 출력" style="whiteSpace=wrap;html=1;strokeWidth=2;" parent="1" vertex="1">
          <mxGeometry x="1290" y="480" width="120" height="30" as="geometry" />
        </mxCell>
        <mxCell id="sWF5zsyBriAMHVySnrM8-4" value="구독관리" style="whiteSpace=wrap;html=1;strokeWidth=2;" parent="1" vertex="1">
          <mxGeometry x="1290" y="520" width="120" height="30" as="geometry" />
        </mxCell>
        <mxCell id="vkQwAch70h2A3rZclxdM-4" value="&lt;ul&gt;&lt;li&gt;구독추가 / 구독갱신&lt;/li&gt;&lt;/ul&gt;" style="text;html=1;resizable=0;autosize=1;align=left;verticalAlign=middle;points=[];fillColor=none;strokeColor=none;rounded=0;" vertex="1" parent="1">
          <mxGeometry x="1390" y="515" width="160" height="40" as="geometry" />
        </mxCell>
        <mxCell id="vkQwAch70h2A3rZclxdM-9" style="edgeStyle=orthogonalEdgeStyle;rounded=0;orthogonalLoop=1;jettySize=auto;html=1;entryX=0.5;entryY=0;entryDx=0;entryDy=0;" edge="1" parent="1" source="vkQwAch70h2A3rZclxdM-6" target="x1_s0fbQaFr76W7rGfXg-10">
          <mxGeometry relative="1" as="geometry" />
        </mxCell>
        <mxCell id="vkQwAch70h2A3rZclxdM-15" value="" style="edgeStyle=orthogonalEdgeStyle;rounded=0;orthogonalLoop=1;jettySize=auto;html=1;" edge="1" parent="1" source="vkQwAch70h2A3rZclxdM-6" target="vkQwAch70h2A3rZclxdM-12">
          <mxGeometry relative="1" as="geometry" />
        </mxCell>
        <mxCell id="vkQwAch70h2A3rZclxdM-6" value="신규 Onboarding?" style="rhombus;whiteSpace=wrap;html=1;fontSize=10;align=center;" vertex="1" parent="1">
          <mxGeometry x="42.5" y="320" width="70" height="70" as="geometry" />
        </mxCell>
        <mxCell id="vkQwAch70h2A3rZclxdM-12" value="프로그램 계약" style="whiteSpace=wrap;html=1;strokeWidth=2;" vertex="1" parent="1">
          <mxGeometry x="150" y="340" width="120" height="30" as="geometry" />
        </mxCell>
        <mxCell id="vkQwAch70h2A3rZclxdM-13" value="No" style="text;html=1;resizable=0;autosize=1;align=center;verticalAlign=middle;points=[];fillColor=none;strokeColor=none;rounded=0;" vertex="1" parent="1">
          <mxGeometry x="50" y="390" width="30" height="20" as="geometry" />
        </mxCell>
        <mxCell id="vkQwAch70h2A3rZclxdM-14" value="No" style="text;html=1;resizable=0;autosize=1;align=center;verticalAlign=middle;points=[];fillColor=none;strokeColor=none;rounded=0;" vertex="1" parent="1">
          <mxGeometry x="107.5" y="330" width="30" height="20" as="geometry" />
        </mxCell>
        <mxCell id="vkQwAch70h2A3rZclxdM-16" value="&lt;ul&gt;&lt;li&gt;통화, 플랜 선택&lt;/li&gt;&lt;li&gt;프로그램 이용동의&lt;/li&gt;&lt;/ul&gt;" style="text;html=1;resizable=0;autosize=1;align=left;verticalAlign=middle;points=[];fillColor=none;strokeColor=none;rounded=0;" vertex="1" parent="1">
          <mxGeometry x="255" y="325" width="150" height="60" as="geometry" />
        </mxCell>
        <mxCell id="vkQwAch70h2A3rZclxdM-17" value="Azure&lt;br&gt;주문?" style="strokeWidth=2;html=1;shape=mxgraph.flowchart.decision;whiteSpace=wrap;align=center;" vertex="1" parent="1">
          <mxGeometry x="890" y="460" width="70" height="70" as="geometry" />
        </mxCell>
        <mxCell id="vkQwAch70h2A3rZclxdM-18" value="No" style="text;html=1;resizable=0;autosize=1;align=center;verticalAlign=middle;points=[];fillColor=none;strokeColor=none;rounded=0;" vertex="1" parent="1">
          <mxGeometry x="950" y="470" width="30" height="20" as="geometry" />
        </mxCell>
        <mxCell id="vkQwAch70h2A3rZclxdM-19" value="Yes" style="text;html=1;resizable=0;autosize=1;align=center;verticalAlign=middle;points=[];fillColor=none;strokeColor=none;rounded=0;" vertex="1" parent="1">
          <mxGeometry x="890" y="525" width="30" height="20" as="geometry" />
        </mxCell>
        <mxCell id="vkQwAch70h2A3rZclxdM-20" value="" style="endArrow=classic;html=1;rounded=0;" edge="1" parent="1">
          <mxGeometry width="50" height="50" relative="1" as="geometry">
            <mxPoint x="924.5" y="530" as="sourcePoint" />
            <mxPoint x="924" y="570" as="targetPoint" />
          </mxGeometry>
        </mxCell>
        <mxCell id="vkQwAch70h2A3rZclxdM-52" style="edgeStyle=orthogonalEdgeStyle;rounded=0;orthogonalLoop=1;jettySize=auto;html=1;entryX=0;entryY=0.5;entryDx=0;entryDy=0;" edge="1" parent="1" source="vkQwAch70h2A3rZclxdM-21" target="vkQwAch70h2A3rZclxdM-48">
          <mxGeometry relative="1" as="geometry" />
        </mxCell>
        <mxCell id="vkQwAch70h2A3rZclxdM-21" value="파트너센터 허가" style="whiteSpace=wrap;html=1;strokeWidth=2;" vertex="1" parent="1">
          <mxGeometry x="865" y="570" width="120" height="30" as="geometry" />
        </mxCell>
        <mxCell id="vkQwAch70h2A3rZclxdM-22" value="&lt;ul&gt;&lt;li&gt;Partner -&amp;gt; Reseller&lt;/li&gt;&lt;/ul&gt;" style="text;html=1;resizable=0;autosize=1;align=left;verticalAlign=middle;points=[];fillColor=none;strokeColor=none;rounded=0;" vertex="1" parent="1">
          <mxGeometry x="840" y="600" width="160" height="40" as="geometry" />
        </mxCell>
        <mxCell id="vkQwAch70h2A3rZclxdM-23" value="&lt;ul&gt;&lt;li&gt;Monthly, Yearly&lt;/li&gt;&lt;/ul&gt;" style="text;html=1;resizable=0;autosize=1;align=left;verticalAlign=middle;points=[];fillColor=none;strokeColor=none;rounded=0;" vertex="1" parent="1">
          <mxGeometry x="561" y="616" width="140" height="40" as="geometry" />
        </mxCell>
        <mxCell id="vkQwAch70h2A3rZclxdM-26" value="" style="edgeStyle=orthogonalEdgeStyle;rounded=0;orthogonalLoop=1;jettySize=auto;html=1;entryX=0;entryY=0.5;entryDx=0;entryDy=0;" edge="1" parent="1" target="vkQwAch70h2A3rZclxdM-31">
          <mxGeometry relative="1" as="geometry">
            <mxPoint x="681" y="685.5" as="sourcePoint" />
            <mxPoint x="711" y="685.5" as="targetPoint" />
          </mxGeometry>
        </mxCell>
        <mxCell id="vkQwAch70h2A3rZclxdM-31" value="인보이스 출력" style="whiteSpace=wrap;html=1;strokeWidth=2;" vertex="1" parent="1">
          <mxGeometry x="725" y="670" width="120" height="30" as="geometry" />
        </mxCell>
        <mxCell id="vkQwAch70h2A3rZclxdM-34" value="구독관리" style="whiteSpace=wrap;html=1;strokeWidth=2;" vertex="1" parent="1">
          <mxGeometry x="725" y="710" width="120" height="30" as="geometry" />
        </mxCell>
        <mxCell id="vkQwAch70h2A3rZclxdM-35" value="&lt;ul&gt;&lt;li&gt;구독추가 / 구독갱신&lt;/li&gt;&lt;/ul&gt;" style="text;html=1;resizable=0;autosize=1;align=left;verticalAlign=middle;points=[];fillColor=none;strokeColor=none;rounded=0;" vertex="1" parent="1">
          <mxGeometry x="825" y="705" width="160" height="40" as="geometry" />
        </mxCell>
        <mxCell id="vkQwAch70h2A3rZclxdM-36" value="Azure&lt;br&gt;주문?" style="strokeWidth=2;html=1;shape=mxgraph.flowchart.decision;whiteSpace=wrap;align=center;" vertex="1" parent="1">
          <mxGeometry x="611" y="651" width="70" height="70" as="geometry" />
        </mxCell>
        <mxCell id="vkQwAch70h2A3rZclxdM-37" value="No" style="text;html=1;resizable=0;autosize=1;align=center;verticalAlign=middle;points=[];fillColor=none;strokeColor=none;rounded=0;" vertex="1" parent="1">
          <mxGeometry x="671" y="661" width="30" height="20" as="geometry" />
        </mxCell>
        <mxCell id="vkQwAch70h2A3rZclxdM-38" value="Yes" style="text;html=1;resizable=0;autosize=1;align=center;verticalAlign=middle;points=[];fillColor=none;strokeColor=none;rounded=0;" vertex="1" parent="1">
          <mxGeometry x="611" y="716" width="30" height="20" as="geometry" />
        </mxCell>
        <mxCell id="vkQwAch70h2A3rZclxdM-39" value="" style="endArrow=classic;html=1;rounded=0;" edge="1" parent="1">
          <mxGeometry width="50" height="50" relative="1" as="geometry">
            <mxPoint x="645.5" y="721" as="sourcePoint" />
            <mxPoint x="645" y="761" as="targetPoint" />
          </mxGeometry>
        </mxCell>
        <mxCell id="vkQwAch70h2A3rZclxdM-46" value="" style="edgeStyle=orthogonalEdgeStyle;rounded=0;orthogonalLoop=1;jettySize=auto;html=1;" edge="1" parent="1" source="vkQwAch70h2A3rZclxdM-40" target="vkQwAch70h2A3rZclxdM-45">
          <mxGeometry relative="1" as="geometry" />
        </mxCell>
        <mxCell id="vkQwAch70h2A3rZclxdM-40" value="파트너센터 허가" style="whiteSpace=wrap;html=1;strokeWidth=2;" vertex="1" parent="1">
          <mxGeometry x="586" y="761" width="120" height="30" as="geometry" />
        </mxCell>
        <mxCell id="vkQwAch70h2A3rZclxdM-41" value="&lt;ul&gt;&lt;li&gt;Partner -&amp;gt; Reseller&lt;/li&gt;&lt;/ul&gt;" style="text;html=1;resizable=0;autosize=1;align=left;verticalAlign=middle;points=[];fillColor=none;strokeColor=none;rounded=0;" vertex="1" parent="1">
          <mxGeometry x="685" y="756" width="160" height="40" as="geometry" />
        </mxCell>
        <mxCell id="vkQwAch70h2A3rZclxdM-45" value="리소스 사용 리포트" style="whiteSpace=wrap;html=1;strokeWidth=2;" vertex="1" parent="1">
          <mxGeometry x="586" y="830" width="120" height="30" as="geometry" />
        </mxCell>
        <mxCell id="vkQwAch70h2A3rZclxdM-47" value="비용통지 설정" style="whiteSpace=wrap;html=1;strokeWidth=2;" vertex="1" parent="1">
          <mxGeometry x="586" y="870" width="120" height="30" as="geometry" />
        </mxCell>
        <mxCell id="vkQwAch70h2A3rZclxdM-48" value="리소스 사용 리포트" style="whiteSpace=wrap;html=1;strokeWidth=2;" vertex="1" parent="1">
          <mxGeometry x="1040" y="570" width="120" height="30" as="geometry" />
        </mxCell>
        <mxCell id="vkQwAch70h2A3rZclxdM-49" value="비용통지 설정" style="whiteSpace=wrap;html=1;strokeWidth=2;" vertex="1" parent="1">
          <mxGeometry x="1040" y="610" width="120" height="30" as="geometry" />
        </mxCell>
      </root>
    </mxGraphModel>
  </diagram>
</mxfile>
